<svg width="16" height="16" viewBox="0 0 16 16" fill="none" xmlns="http://www.w3.org/2000/svg">
<path d="M10.1628 10.3115C10.5558 10.4425 10.9805 10.2301 11.1115 9.83714C11.2425 9.44419 11.0301 9.01945 10.6371 8.88846L10.1628 10.3115ZM7.99997 8.79997H7.24997C7.24997 9.1228 7.45655 9.4094 7.7628 9.51149L7.99997 8.79997ZM8.74997 5.45481C8.74997 5.0406 8.41419 4.70481 7.99997 4.70481C7.58576 4.70481 7.24997 5.0406 7.24997 5.45481H8.74997ZM10.6371 8.88846L8.23714 8.08846L7.7628 9.51149L10.1628 10.3115L10.6371 8.88846ZM8.74997 8.79997V5.45481H7.24997V8.79997H8.74997ZM13.65 7.99997C13.65 11.1204 11.1204 13.65 7.99997 13.65V15.15C11.9488 15.15 15.15 11.9488 15.15 7.99997H13.65ZM7.99997 13.65C4.87957 13.65 2.34998 11.1204 2.34998 7.99997H0.849976C0.849976 11.9488 4.05114 15.15 7.99997 15.15V13.65ZM2.34998 7.99997C2.34998 4.87957 4.87957 2.34998 7.99997 2.34998V0.849976C4.05114 0.849976 0.849976 4.05114 0.849976 7.99997H2.34998ZM7.99997 2.34998C11.1204 2.34998 13.65 4.87957 13.65 7.99997H15.15C15.15 4.05114 11.9488 0.849976 7.99997 0.849976V2.34998Z" fill="#A0AEC0"/>
</svg>
