<svg width="24" height="24" viewBox="0 0 24 24" fill="none" xmlns="http://www.w3.org/2000/svg">
<path d="M16.1011 9.31302C16.4916 8.92249 16.4916 8.28933 16.1011 7.89881C15.7106 7.50828 15.0774 7.50828 14.6869 7.89881L16.1011 9.31302ZM7.89868 14.687C7.50816 15.0776 7.50816 15.7107 7.89868 16.1012C8.28921 16.4918 8.92237 16.4918 9.3129 16.1012L7.89868 14.687ZM14.6869 16.1012C15.0774 16.4918 15.7106 16.4918 16.1011 16.1012C16.4916 15.7107 16.4916 15.0776 16.1011 14.687L14.6869 16.1012ZM9.3129 7.8988C8.92237 7.50828 8.28921 7.50828 7.89868 7.8988C7.50816 8.28933 7.50816 8.92249 7.89868 9.31302L9.3129 7.8988ZM20.5999 12C20.5999 16.7497 16.7496 20.6 11.9999 20.6V22.6C17.8541 22.6 22.5999 17.8542 22.5999 12H20.5999ZM11.9999 20.6C7.25025 20.6 3.3999 16.7497 3.3999 12H1.3999C1.3999 17.8542 6.14568 22.6 11.9999 22.6V20.6ZM3.3999 12C3.3999 7.25038 7.25025 3.40002 11.9999 3.40002V1.40002C6.14568 1.40002 1.3999 6.14581 1.3999 12H3.3999ZM11.9999 3.40002C16.7496 3.40002 20.5999 7.25038 20.5999 12H22.5999C22.5999 6.14581 17.8541 1.40002 11.9999 1.40002V3.40002ZM14.6869 7.89881L11.2928 11.2929L12.707 12.7071L16.1011 9.31302L14.6869 7.89881ZM11.2928 11.2929L7.89868 14.687L9.3129 16.1012L12.707 12.7071L11.2928 11.2929ZM16.1011 14.687L12.707 11.2929L11.2928 12.7071L14.6869 16.1012L16.1011 14.687ZM12.707 11.2929L9.3129 7.8988L7.89868 9.31302L11.2928 12.7071L12.707 11.2929Z" fill="#E53935"/>
</svg>
