<svg width="20" height="20" viewBox="0 0 20 20" fill="none" xmlns="http://www.w3.org/2000/svg">
<path d="M8.343 6.21051L5.71085 6.21051C4.72781 6.21051 3.77637 6.59664 3.07866 7.30468C2.38096 8.01272 1.98456 8.96205 2.00046 9.97583C1.98452 10.9896 2.38107 11.9391 3.07866 12.647C3.79217 13.3711 4.71185 13.7573 5.69493 13.7573H8.32708M11.657 13.7895H14.2892C15.2722 13.7895 16.2236 13.4033 16.9213 12.6953C17.619 11.9873 18.0154 11.0379 17.9995 10.0241C17.9995 9.02654 17.6031 8.07717 16.9054 7.36913C16.2077 6.66109 15.2722 6.25883 14.2892 6.25881H11.657M6.0437 9.96479L13.9402 9.96479" stroke="#3390EC" stroke-width="1.5" stroke-linecap="round" stroke-linejoin="round"/>
</svg>
