<svg width="20" height="20" viewBox="0 0 20 20" fill="none" xmlns="http://www.w3.org/2000/svg">
<path d="M7.2967 3.54618L8.3062 2.09545C8.49315 1.82679 8.79973 1.66663 9.12703 1.66663H10.4575C10.7836 1.66663 11.0892 1.82561 11.2763 2.09262L12.2747 3.51689M7.2967 3.54618C7.00766 3.95855 6.52721 4.16062 6.01725 4.12459M7.2967 3.54618C7.00626 3.95756 6.52721 4.16229 6.01725 4.12459M6.01725 4.12459L4.22817 4.01227C3.90732 3.99213 3.59635 4.12746 3.39243 4.37599L2.55397 5.39788C2.33777 5.66137 2.27067 6.01684 2.37593 6.34102L2.89431 7.93749M2.89431 7.93749C2.96841 8.17777 2.9779 8.43518 2.92487 8.6783M2.89431 7.93749C2.96947 8.17734 2.9786 8.43424 2.92451 8.68079M2.92487 8.6783C2.87113 8.91853 2.75593 9.14537 2.5849 9.32906M2.92487 8.6783L2.92451 8.68079M2.5849 9.32906L1.40743 10.5954C1.17903 10.8411 1.089 11.1849 1.16769 11.511L1.46123 12.7274C1.53966 13.0524 1.7753 13.3167 2.08921 13.4317L3.70701 14.0247C3.94442 14.1166 4.14953 14.2659 4.30476 14.454M2.5849 9.32906C2.75699 9.14688 2.87113 8.92077 2.92451 8.68079M4.30476 14.454C4.45894 14.6427 4.56395 14.8704 4.60469 15.1169M4.30476 14.454C4.46035 14.6427 4.56571 14.8698 4.60469 15.1169M4.30476 14.454L4.3023 14.4513C4.29212 14.439 4.28123 14.4261 4.27069 14.4141M4.60469 15.1169L4.88022 16.8094C4.93349 17.1366 5.14544 17.4161 5.44611 17.5557L6.64536 18.1125C6.93643 18.2476 7.27467 18.2349 7.55473 18.0782L9.07522 17.2275M9.07522 17.2275C9.29613 17.1034 9.54268 17.0412 9.78923 17.0409M9.07522 17.2275C9.16267 17.1778 9.25434 17.138 9.34846 17.1082C9.4914 17.0629 9.64032 17.0406 9.78923 17.0409M9.78923 17.0409C9.91742 17.0412 10.0456 17.0581 10.1706 17.0916C10.2869 17.1228 10.4 17.1681 10.5071 17.2275M9.78923 17.0409C10.0368 17.0406 10.2848 17.1028 10.5071 17.2275M10.5071 17.2275L12.102 18.0909C12.3833 18.2432 12.7205 18.2517 13.0091 18.1139L14.2028 17.5438C14.5024 17.4007 14.7114 17.1182 14.7607 16.7899L15.0071 15.1483M15.0071 15.1483C15.0461 14.9003 15.1497 14.6709 15.3035 14.4806M15.0071 15.1483C15.0447 14.8998 15.149 14.6707 15.3035 14.4806M15.3035 14.4806C15.4563 14.2923 15.659 14.1422 15.895 14.0494M15.3035 14.4806C15.456 14.2915 15.6579 14.141 15.895 14.0494M15.895 14.0494L17.5321 13.4078C17.8401 13.2871 18.0684 13.0219 18.1421 12.6994L18.4243 11.4639C18.4978 11.1423 18.4079 10.8051 18.184 10.5627L16.9978 9.27826M16.9978 9.27826C16.8236 9.09393 16.7021 8.87375 16.6431 8.63974M16.9978 9.27826C16.9159 9.19217 16.8457 9.09806 16.7885 8.99827C16.7231 8.88496 16.6743 8.76434 16.6431 8.63974M16.6431 8.63974C16.5851 8.4074 16.5886 8.1612 16.662 7.9229L17.1741 6.28163C17.2745 5.95983 17.206 5.6091 16.9919 5.34872L16.1769 4.35743C15.9706 4.10654 15.6553 3.97146 15.3314 3.99519L13.5647 4.12459M13.5647 4.12459C13.3111 4.1425 13.0618 4.09419 12.8398 3.99028M13.5647 4.12459C13.3108 4.14353 13.0618 4.09483 12.8398 3.99028M12.8398 3.99028C12.6165 3.88504 12.4205 3.72321 12.2747 3.51689M12.8398 3.99028C12.6161 3.88543 12.4198 3.72403 12.2747 3.51689M2.92451 8.68079L2.92522 8.67714M12.6133 10.0088C12.6133 11.5629 11.3251 12.8228 9.7362 12.8228C8.14733 12.8228 6.8591 11.5629 6.8591 10.0088C6.8591 8.45468 8.14733 7.19484 9.7362 7.19484C11.3251 7.19484 12.6133 8.45468 12.6133 10.0088Z" stroke="#3390EC" stroke-width="1.5"/>
</svg>
