<svg width="28" height="28" viewBox="0 0 28 28" fill="none" xmlns="http://www.w3.org/2000/svg">
<path d="M8.40005 7.14003V8.14003C8.75572 8.14003 9.08462 7.95112 9.26383 7.6439L8.40005 7.14003ZM10.36 3.78003V2.78003C10.0044 2.78003 9.67548 2.96894 9.49627 3.27616L10.36 3.78003ZM17.64 3.78003L18.5038 3.27616C18.3246 2.96894 17.9957 2.78003 17.64 2.78003V3.78003ZM19.6 7.14003L18.7363 7.6439C18.9155 7.95112 19.2444 8.14003 19.6 8.14003V7.14003ZM3.80005 21.42V9.94003H1.80005V21.42H3.80005ZM5.60005 8.14003H8.40005V6.14003H5.60005V8.14003ZM9.26383 7.6439L11.2238 4.2839L9.49627 3.27616L7.53627 6.63616L9.26383 7.6439ZM10.36 4.78003H17.64V2.78003H10.36V4.78003ZM16.7763 4.2839L18.7363 7.6439L20.4638 6.63616L18.5038 3.27616L16.7763 4.2839ZM19.6 8.14003H22.4V6.14003H19.6V8.14003ZM24.2 9.94003V21.42H26.2V9.94003H24.2ZM24.2 21.42C24.2 22.4141 23.3942 23.22 22.4 23.22V25.22C24.4987 25.22 26.2 23.5187 26.2 21.42H24.2ZM22.4 8.14003C23.3942 8.14003 24.2 8.94592 24.2 9.94003H26.2C26.2 7.84135 24.4987 6.14003 22.4 6.14003V8.14003ZM3.80005 9.94003C3.80005 8.94592 4.60594 8.14003 5.60005 8.14003V6.14003C3.50137 6.14003 1.80005 7.84134 1.80005 9.94003H3.80005ZM5.60005 23.22C4.60594 23.22 3.80005 22.4141 3.80005 21.42H1.80005C1.80005 23.5187 3.50137 25.22 5.60005 25.22V23.22ZM17.2 14.98C17.2 16.7473 15.7674 18.18 14 18.18V20.18C16.8719 20.18 19.2 17.8519 19.2 14.98H17.2ZM14 18.18C12.2327 18.18 10.8 16.7473 10.8 14.98H8.80005C8.80005 17.8519 11.1282 20.18 14 20.18V18.18ZM10.8 14.98C10.8 13.2127 12.2327 11.78 14 11.78V9.78003C11.1282 9.78003 8.80005 12.1081 8.80005 14.98H10.8ZM14 11.78C15.7674 11.78 17.2 13.2127 17.2 14.98H19.2C19.2 12.1081 16.8719 9.78003 14 9.78003V11.78ZM22.4 23.22H5.60005V25.22H22.4V23.22Z" fill="white"/>
</svg>
