<svg width="20" height="20" viewBox="0 0 20 20" fill="none" xmlns="http://www.w3.org/2000/svg">
<path fill-rule="evenodd" clip-rule="evenodd" d="M2.80269 10.0873C2.85939 10.2186 2.94262 10.3987 3.0554 10.6127C3.30733 11.0908 3.70247 11.7299 4.27201 12.3703C5.40282 13.6417 7.21602 14.9174 10.0123 14.9631C12.7925 15.0086 14.595 13.7419 15.7237 12.4501C16.2926 11.799 16.688 11.1425 16.9405 10.6488C17.0572 10.4208 17.1424 10.2295 17.1994 10.0922C17.144 9.95199 17.0607 9.75562 16.9456 9.52104C16.6984 9.01684 16.3094 8.34534 15.7444 7.67644C14.6233 6.34918 12.8187 5.03577 10.0001 5.03577C7.18145 5.03577 5.37678 6.34918 4.25572 7.67644C3.69074 8.34534 3.3017 9.01684 3.05448 9.52104C2.94081 9.75288 2.85807 9.94739 2.80269 10.0873ZM18.0001 10.0992C18.7158 9.87507 18.7157 9.87471 18.7156 9.87433L18.7146 9.87129L18.7127 9.86538L18.7068 9.8473C18.7019 9.83252 18.6951 9.81231 18.6863 9.78705C18.6687 9.73653 18.6431 9.6657 18.6087 9.57746C18.5401 9.40111 18.4365 9.15438 18.2925 8.86067C18.0052 8.27485 17.5529 7.49299 16.8903 6.70854C15.5563 5.12908 13.3609 3.53577 10.0001 3.53577C6.63918 3.53577 4.44386 5.12908 3.10979 6.70854C2.44721 7.49299 1.9949 8.27485 1.70766 8.86067C1.56365 9.15438 1.46001 9.40111 1.3914 9.57746C1.35706 9.6657 1.33142 9.73653 1.31381 9.78705C1.305 9.81231 1.2982 9.83252 1.29331 9.8473L1.28742 9.86538L1.28553 9.87129L1.28485 9.87345C1.28472 9.87383 1.28434 9.87507 2.00006 10.0992L1.28434 9.87507L1.21069 10.1102L1.29087 10.3432L2.00006 10.0992C1.29087 10.3432 1.29074 10.3429 1.29087 10.3432L1.29143 10.3449L1.29217 10.347L1.2942 10.3528L1.30044 10.3702C1.3056 10.3845 1.31274 10.4039 1.32195 10.428C1.34037 10.4764 1.36708 10.5441 1.40267 10.6283C1.47381 10.7966 1.58075 11.0319 1.72838 11.312C2.02292 11.8709 2.48355 12.6165 3.15119 13.3671C4.49473 14.8777 6.68154 16.4089 9.9878 16.4629C13.3102 16.5173 15.5077 14.9771 16.8533 13.437C17.5216 12.6722 17.982 11.9065 18.2759 11.332C18.4233 11.0439 18.53 10.8017 18.6008 10.6284C18.6363 10.5417 18.6628 10.472 18.6811 10.4223C18.6903 10.3974 18.6974 10.3776 18.7025 10.363L18.7086 10.3452L18.7106 10.3393L18.7113 10.3372C18.7114 10.3368 18.7118 10.3356 18.0001 10.0992ZM18.0001 10.0992L18.7118 10.3356L18.7881 10.106L18.7156 9.87433L18.0001 10.0992ZM2.71526 10.325C2.71511 10.3255 2.7152 10.3252 2.71526 10.325ZM10.0001 8.82823C9.29027 8.82823 8.75006 9.38292 8.75006 10.0244C8.75006 10.6658 9.29027 11.2205 10.0001 11.2205C10.7099 11.2205 11.2501 10.6658 11.2501 10.0244C11.2501 9.38292 10.7099 8.82823 10.0001 8.82823ZM7.25006 10.0244C7.25006 8.51615 8.50071 7.32823 10.0001 7.32823C11.4994 7.32823 12.7501 8.51615 12.7501 10.0244C12.7501 11.5326 11.4994 12.7205 10.0001 12.7205C8.50071 12.7205 7.25006 11.5326 7.25006 10.0244ZM2.70872 9.85365C2.70864 9.8534 2.70858 9.85326 2.70872 9.85365Z" fill="#707579"/>
</svg>
