<svg width="20" height="20" viewBox="0 0 20 20" fill="none" xmlns="http://www.w3.org/2000/svg">
<path d="M2 15.1807C2.91554 13.6536 4.92209 12.6084 8.0526 12.6084C11.1831 12.6084 13.1897 13.6536 14.1052 15.1807M14.6844 11.4505C16.3422 12.2794 17.1711 13.1083 18 14.7661M12.9602 5.11466C13.7402 5.53429 14.2705 6.35826 14.2705 7.30609C14.2705 8.22653 13.7704 9.03016 13.0272 9.46013M10.5393 7.30606C10.5393 8.67944 9.42598 9.79278 8.0526 9.79278C6.67922 9.79278 5.56587 8.67944 5.56587 7.30606C5.56587 5.93268 6.67922 4.81934 8.0526 4.81934C9.42598 4.81934 10.5393 5.93268 10.5393 7.30606Z" stroke="#3390EC" stroke-width="1.5" stroke-linecap="round"/>
</svg>
