<svg width="20" height="20" viewBox="0 0 20 20" fill="none" xmlns="http://www.w3.org/2000/svg">
<path d="M17.2195 15.6425C17.2195 15.6425 16.2539 16.5908 16.0173 16.8688C15.6318 17.2802 15.1777 17.4744 14.5823 17.4744C14.5251 17.4744 14.464 17.4744 14.4068 17.4706C13.2733 17.3982 12.22 16.9564 11.43 16.5794C9.26988 15.5358 7.37312 14.0543 5.79694 12.1766C4.49554 10.6113 3.6254 9.16399 3.04912 7.61008C2.69419 6.66173 2.56444 5.92286 2.62168 5.22588C2.65985 4.78027 2.83159 4.41084 3.14835 4.09472L4.44975 2.79599C4.63675 2.62079 4.8352 2.52557 5.02984 2.52557C5.27027 2.52557 5.46491 2.6703 5.58704 2.79218C5.59085 2.79599 5.59467 2.79979 5.59849 2.8036C5.83129 3.02069 6.05264 3.2454 6.28544 3.48535C6.40375 3.60722 6.52587 3.7291 6.648 3.85478L7.68988 4.89453C8.09442 5.29825 8.09442 5.67149 7.68988 6.07521C7.57921 6.18566 7.47235 6.2961 7.36167 6.40275C7.04109 6.73029 7.29292 6.47897 6.9609 6.77604C6.95326 6.78366 6.94563 6.78747 6.94181 6.79508C6.6136 7.12262 6.67466 7.44255 6.74336 7.65964C6.74718 7.67106 6.75099 7.68249 6.75481 7.69392C7.02577 8.349 7.40742 8.96599 7.98751 9.70106L7.99133 9.70487C9.04466 10.9998 10.1552 12.0091 11.3803 12.7822C11.5368 12.8813 11.6971 12.9612 11.8497 13.0374C11.9871 13.106 12.1169 13.1707 12.2275 13.2393C12.2428 13.2469 12.2581 13.2583 12.2733 13.2659C12.4031 13.3307 12.5252 13.3611 12.6512 13.3611C12.9679 13.3611 13.1664 13.1631 13.2313 13.0983L13.9793 12.3518C14.1091 12.2223 14.3152 12.0662 14.5556 12.0662C14.7922 12.0662 14.9869 12.2147 15.1052 12.3442C15.109 12.348 15.109 12.348 15.1128 12.3518L17.2157 14.4504C17.6087 14.8388 17.2195 15.6425 17.2195 15.6425Z" stroke="#3390EC" stroke-width="1.5" stroke-linecap="round" stroke-linejoin="round"/>
</svg>
